<?xml version="1.0" encoding="utf-8"?>
<!-- Generator: Adobe Illustrator 28.2.0, SVG Export Plug-In . SVG Version: 6.00 Build 0)  -->
<svg version="1.1" xmlns="http://www.w3.org/2000/svg" xmlns:xlink="http://www.w3.org/1999/xlink" x="0px" y="0px"
	 viewBox="0 0 5184 5184" style="enable-background:new 0 0 5184 5184;" xml:space="preserve">
<style type="text/css">
	.st0{fill:#2B2867;}
	.st1{fill:#FFD54C;}
	.st2{fill:#FFD54B;}
	.st3{fill:#FFFFFF;}
	.st4{opacity:0.99;}
	.st5{fill:#606161;}
	.st6{fill:#252569;}
	.st7{fill:#2A2967;}
</style>
<g id="BG">
</g>
<g id="Layer_1">
</g>
<g id="Layer_2_00000134972148188684726830000004049205896169999790_">
</g>
<g id="Layer_3">
	<g id="K">
	</g>
	<g>
		<path d="M1168.54,2954.34H648.33l-88,284.69l155.29,25.88v232.93H94.46v-232.93l155.29-25.88l414.1-1294.07l-155.29-25.88v-232.93
			h569.39l491.75,1552.88l155.29,25.88v232.93h-621.15v-232.93l155.29-25.88L1168.54,2954.34z M738.91,2669.64h341.63
			l-170.82-543.51L738.91,2669.64z"/>
		<path d="M2553.19,2566.12l582.33,672.91l168.23,25.88v232.93h-362.34l-647.03-789.38v530.57l155.29,25.88v232.93h-621.15v-232.93
			l155.29-25.88V1944.97l-155.29-25.88v-232.93h621.15v232.93l-155.29,25.88v491.74l465.86-491.74l-129.41-25.88v-232.93h672.92
			v232.93l-155.29,25.88L2553.19,2566.12z"/>
		<path d="M4649.55,1686.15h439.98v232.93l-155.29,25.88v1294.07l155.29,25.88v232.93h-621.15v-232.93l155.29-25.88V2307.3
			l-375.28,647.04l-375.28-647.04v931.73l155.29,25.88v232.93h-621.15v-232.93l155.29-25.88V1944.97l-155.29-25.88v-232.93h439.98
			l401.16,698.8L4649.55,1686.15z"/>
	</g>
</g>
</svg>
